<svg width="176" height="32" viewBox="0 0 176 32" fill="none" xmlns="http://www.w3.org/2000/svg">
<g clip-path="url(#clip0_1_466)">
<path d="M16 0C7.16344 0 0 7.16344 0 16C0 24.8366 7.16344 32 16 32C24.8366 32 32 24.8366 32 16C32 7.16344 24.8366 0 16 0ZM16 2.62999C19.0415 2.62999 21.8439 3.65045 24.09 5.36L21.8 7.65004C20.1558 6.50553 18.1559 5.84 16 5.84C13.8441 5.84 11.8442 6.50546 10.2 7.64997L7.90999 5.36C10.1561 3.65038 12.9585 2.62999 16 2.62999ZM5.36 7.90999L7.64997 10.2C6.50546 11.8442 5.84 13.8441 5.84 16C5.84 18.1559 6.50546 20.1558 7.64997 21.8L5.36 24.09C3.65038 21.8419 2.62999 19.0415 2.62999 16C2.62999 12.9585 3.65045 10.1561 5.36 7.90999ZM26.64 7.90999C28.3496 10.1561 29.37 12.9585 29.37 16C29.37 19.0415 28.3495 21.8419 26.64 24.09L24.35 21.8C25.4945 20.1558 26.16 18.1559 26.16 16C26.16 13.8441 25.4945 11.8442 24.35 10.2L26.64 7.90999ZM16 8.81001C19.9727 8.81001 23.19 12.0273 23.19 16C23.19 19.9727 19.9728 23.2 16 23.2C12.0272 23.2 8.81001 19.9727 8.81001 16C8.81001 12.0273 12.0272 8.81001 16 8.81001ZM16 12.3001C13.9582 12.3001 12.3 13.9583 12.3 16C12.3 18.0417 13.9582 19.7 16 19.7C18.0418 19.7 19.7 18.0418 19.7 16C19.7 13.9582 18.0417 12.3 16 12.3V12.3001ZM10.2 24.35C11.8442 25.4945 13.8441 26.1599 16 26.1599C18.1559 26.1599 20.1558 25.4945 21.8 24.35L24.1 26.6499C21.853 28.364 19.0439 29.3799 16 29.3799C12.9561 29.3799 10.147 28.364 7.89998 26.6499L10.2 24.35Z" fill="#333333"/>
<path d="M37.936 6.71997H49.36V9.18397H44.9472V22.4H42.3712V9.18397H37.936V6.71997Z" fill="#333333"/>
<path d="M58.862 12.7904V11.2H61.2812V22.4H58.862V20.7872C57.951 22.0565 56.6444 22.6912 54.942 22.6912C53.4038 22.6912 52.0897 22.1237 50.9996 20.9888C49.9094 19.8538 49.3644 18.4576 49.3644 16.8C49.3644 15.1424 49.9094 13.7461 50.9996 12.6112C52.0897 11.4762 53.4038 10.9088 54.942 10.9088C56.6444 10.9088 57.951 11.536 58.862 12.7904ZM52.7916 19.376C53.4636 20.048 54.3073 20.384 55.3228 20.384C56.3382 20.384 57.182 20.048 57.854 19.376C58.526 18.689 58.862 17.8304 58.862 16.8C58.862 15.7696 58.526 14.9184 57.854 14.2464C57.182 13.5594 56.3382 13.216 55.3228 13.216C54.3073 13.216 53.4636 13.5594 52.7916 14.2464C52.1196 14.9184 51.7836 15.7696 51.7836 16.8C51.7836 17.8154 52.1196 18.6741 52.7916 19.376Z" fill="#333333"/>
<path d="M67.1041 14.2912C67.1041 14.6346 67.2833 14.9184 67.6417 15.1424C68.0001 15.3514 68.5228 15.553 69.2097 15.7472C69.7324 15.8666 70.1879 15.9936 70.5761 16.128C70.9644 16.2624 71.3751 16.464 71.8081 16.7328C72.2412 16.9866 72.5697 17.3301 72.7937 17.7632C73.0327 18.1813 73.1447 18.6741 73.1297 19.2416C73.1297 20.3168 72.7116 21.1605 71.8753 21.7728C71.0391 22.385 70.0012 22.6912 68.7617 22.6912C67.6567 22.6912 66.7084 22.4597 65.9169 21.9968C65.1255 21.5338 64.5505 20.8917 64.1921 20.0704L66.2753 18.8608C66.6487 19.936 67.4775 20.4736 68.7617 20.4736C70.0311 20.4736 70.6657 20.0554 70.6657 19.2192C70.6657 18.6069 69.9564 18.129 68.5377 17.7856C68.0001 17.6512 67.5447 17.5168 67.1713 17.3824C66.8129 17.248 66.4097 17.0538 65.9617 16.8C65.5287 16.5461 65.1927 16.2101 64.9537 15.792C64.7297 15.3738 64.6252 14.8885 64.6401 14.336C64.6401 13.3056 65.0284 12.4768 65.8049 11.8496C66.5964 11.2224 67.5745 10.9088 68.7393 10.9088C69.6652 10.9088 70.4865 11.1178 71.2033 11.536C71.9351 11.9392 72.4951 12.5066 72.8833 13.2384L70.8449 14.3808C70.4716 13.5296 69.7697 13.104 68.7393 13.104C68.2615 13.104 67.8657 13.2085 67.5521 13.4176C67.2535 13.6266 67.1041 13.9178 67.1041 14.2912Z" fill="#333333"/>
<path d="M80.8147 16.688L85.9219 22.4H83.0323L78.4403 17.2256V22.4H76.0211V6.71997H78.4403V16.1504L82.7859 11.2H85.7427L80.8147 16.688Z" fill="#333333"/>
<path d="M95.5872 22.6912C94.0789 22.6912 92.7947 22.3552 91.7344 21.6832C90.6891 20.9963 89.9573 20.048 89.5392 18.8384L91.7568 17.5392C92.384 19.3014 93.6832 20.1824 95.6544 20.1824C96.6101 20.1824 97.3344 19.9958 97.8272 19.6224C98.32 19.2491 98.5664 18.7488 98.5664 18.1216C98.5664 17.4944 98.3051 17.0091 97.7824 16.6656C97.2597 16.3222 96.3339 15.9488 95.0048 15.5456C93.6459 15.1424 92.5483 14.6646 91.712 14.112C90.6965 13.3952 90.1888 12.3424 90.1888 10.9536C90.1888 9.56483 90.6816 8.46723 91.6672 7.66083C92.6379 6.8395 93.8251 6.42883 95.2288 6.42883C96.4683 6.42883 97.5584 6.73497 98.4992 7.34723C99.4549 7.94457 100.187 8.7883 100.694 9.87843L98.5216 11.1328C97.8645 9.66937 96.7669 8.93763 95.2288 8.93763C94.4821 8.93763 93.8848 9.11683 93.4368 9.47523C92.9888 9.8187 92.7648 10.2891 92.7648 10.8864C92.7648 11.4688 92.9888 11.9318 93.4368 12.2752C93.8848 12.6038 94.7136 12.9547 95.9232 13.328C96.6699 13.5819 97.1029 13.7312 97.2224 13.776C97.4165 13.8358 97.8048 13.9851 98.3872 14.224C98.8651 14.4182 99.2459 14.6272 99.5296 14.8512C100.694 15.7622 101.232 16.8374 101.142 18.0768C101.142 19.4955 100.627 20.623 99.5968 21.4592C98.5963 22.2806 97.2597 22.6912 95.5872 22.6912Z" fill="#4165FF"/>
<path d="M111.672 17.2032V11.2H114.091V22.4H111.672V20.9664C110.925 22.1163 109.768 22.6912 108.2 22.6912C106.9 22.6912 105.855 22.2806 105.064 21.4592C104.287 20.623 103.899 19.4955 103.899 18.0768V11.2H106.318V17.8304C106.318 18.6667 106.542 19.3088 106.99 19.7568C107.438 20.2048 108.05 20.4288 108.827 20.4288C109.708 20.4288 110.402 20.16 110.91 19.6224C111.418 19.0699 111.672 18.2635 111.672 17.2032Z" fill="#4165FF"/>
<path d="M123.102 22.6912C121.415 22.6912 120.003 22.1238 118.869 20.9888C117.749 19.839 117.189 18.4427 117.189 16.8C117.189 15.1275 117.749 13.7312 118.869 12.6112C120.003 11.4763 121.415 10.9088 123.102 10.9088C124.192 10.9088 125.185 11.1702 126.081 11.6928C126.977 12.2155 127.649 12.9174 128.097 13.7984L126.014 15.008C125.76 14.4704 125.372 14.0523 124.849 13.7536C124.342 13.44 123.752 13.2832 123.08 13.2832C122.094 13.2832 121.265 13.6192 120.593 14.2912C119.936 14.9782 119.608 15.8144 119.608 16.8C119.608 17.7856 119.936 18.6219 120.593 19.3088C121.265 19.9808 122.094 20.3168 123.08 20.3168C123.737 20.3168 124.327 20.1675 124.849 19.8688C125.387 19.5552 125.79 19.1296 126.059 18.592L128.142 19.7792C127.664 20.6752 126.97 21.3846 126.059 21.9072C125.163 22.4299 124.177 22.6912 123.102 22.6912Z" fill="#4165FF"/>
<path d="M135.898 22.6912C134.211 22.6912 132.799 22.1238 131.665 20.9888C130.545 19.839 129.985 18.4427 129.985 16.8C129.985 15.1275 130.545 13.7312 131.665 12.6112C132.799 11.4763 134.211 10.9088 135.898 10.9088C136.988 10.9088 137.981 11.1702 138.877 11.6928C139.773 12.2155 140.445 12.9174 140.893 13.7984L138.81 15.008C138.556 14.4704 138.168 14.0523 137.645 13.7536C137.138 13.44 136.548 13.2832 135.876 13.2832C134.89 13.2832 134.061 13.6192 133.389 14.2912C132.732 14.9782 132.404 15.8144 132.404 16.8C132.404 17.7856 132.732 18.6219 133.389 19.3088C134.061 19.9808 134.89 20.3168 135.876 20.3168C136.533 20.3168 137.123 20.1675 137.645 19.8688C138.183 19.5552 138.586 19.1296 138.855 18.592L140.938 19.7792C140.46 20.6752 139.766 21.3846 138.855 21.9072C137.959 22.4299 136.973 22.6912 135.898 22.6912Z" fill="#4165FF"/>
<path d="M154.227 17.8304H145.312C145.491 18.6667 145.894 19.3163 146.521 19.7792C147.163 20.2422 147.955 20.4736 148.896 20.4736C150.165 20.4736 151.128 20.0107 151.785 19.0848L153.779 20.2496C152.689 21.8774 151.054 22.6912 148.873 22.6912C147.066 22.6912 145.595 22.1387 144.461 21.0336C143.341 19.9136 142.781 18.5024 142.781 16.8C142.781 15.1424 143.333 13.7462 144.438 12.6112C145.528 11.4763 146.947 10.9088 148.694 10.9088C150.322 10.9088 151.666 11.4838 152.726 12.6336C153.786 13.7835 154.317 15.1798 154.317 16.8224C154.317 17.1211 154.287 17.4571 154.227 17.8304ZM145.289 15.8592H151.875C151.711 14.9782 151.337 14.2987 150.755 13.8208C150.187 13.343 149.493 13.104 148.672 13.104C147.776 13.104 147.029 13.3504 146.432 13.8432C145.834 14.336 145.454 15.008 145.289 15.8592Z" fill="#4165FF"/>
<path d="M159.077 14.2912C159.077 14.6347 159.256 14.9184 159.614 15.1424C159.973 15.3515 160.495 15.5531 161.182 15.7472C161.705 15.8667 162.16 15.9936 162.549 16.128C162.937 16.2624 163.347 16.464 163.781 16.7328C164.214 16.9867 164.542 17.3302 164.766 17.7632C165.005 18.1814 165.117 18.6742 165.102 19.2416C165.102 20.3168 164.684 21.1606 163.848 21.7728C163.011 22.3851 161.974 22.6912 160.734 22.6912C159.629 22.6912 158.681 22.4598 157.889 21.9968C157.098 21.5339 156.523 20.8918 156.165 20.0704L158.248 18.8608C158.621 19.936 159.45 20.4736 160.734 20.4736C162.003 20.4736 162.638 20.0555 162.638 19.2192C162.638 18.607 161.929 18.1291 160.51 17.7856C159.973 17.6512 159.517 17.5168 159.144 17.3824C158.785 17.248 158.382 17.0539 157.934 16.8C157.501 16.5462 157.165 16.2102 156.926 15.792C156.702 15.3739 156.598 14.8886 156.613 14.336C156.613 13.3056 157.001 12.4768 157.777 11.8496C158.569 11.2224 159.547 10.9088 160.712 10.9088C161.638 10.9088 162.459 11.1179 163.176 11.536C163.907 11.9392 164.467 12.5067 164.856 13.2384L162.817 14.3808C162.444 13.5296 161.742 13.104 160.712 13.104C160.234 13.104 159.838 13.2086 159.525 13.4176C159.226 13.6267 159.077 13.9179 159.077 14.2912Z" fill="#4165FF"/>
<path d="M169.619 14.2912C169.619 14.6347 169.799 14.9184 170.157 15.1424C170.515 15.3515 171.038 15.5531 171.725 15.7472C172.248 15.8667 172.703 15.9936 173.091 16.128C173.48 16.2624 173.89 16.464 174.323 16.7328C174.756 16.9867 175.085 17.3302 175.309 17.7632C175.548 18.1814 175.66 18.6742 175.645 19.2416C175.645 20.3168 175.227 21.1606 174.391 21.7728C173.554 22.3851 172.516 22.6912 171.277 22.6912C170.172 22.6912 169.224 22.4598 168.432 21.9968C167.641 21.5339 167.066 20.8918 166.707 20.0704L168.791 18.8608C169.164 19.936 169.993 20.4736 171.277 20.4736C172.546 20.4736 173.181 20.0555 173.181 19.2192C173.181 18.607 172.472 18.1291 171.053 17.7856C170.515 17.6512 170.06 17.5168 169.687 17.3824C169.328 17.248 168.925 17.0539 168.477 16.8C168.044 16.5462 167.708 16.2102 167.469 15.792C167.245 15.3739 167.14 14.8886 167.155 14.336C167.155 13.3056 167.544 12.4768 168.32 11.8496C169.112 11.2224 170.09 10.9088 171.255 10.9088C172.18 10.9088 173.002 11.1179 173.719 11.536C174.45 11.9392 175.01 12.5067 175.399 13.2384L173.36 14.3808C172.987 13.5296 172.285 13.104 171.255 13.104C170.777 13.104 170.381 13.2086 170.067 13.4176C169.769 13.6267 169.619 13.9179 169.619 14.2912Z" fill="#4165FF"/>
</g>
<defs>
<clipPath id="clip0_1_466">
<rect width="176" height="32" fill="white"/>
</clipPath>
</defs>
</svg>
